<?xml version="1.0" encoding="utf-8" ?><svg xmlns="http://www.w3.org/2000/svg" xmlns:xlink="http://www.w3.org/1999/xlink" width="512" height="481" viewBox="0 0 512 481"><path fill="#4A9CF5" transform="scale(0.484848 0.484879)" d="M752.384 549.995C753.252 561.359 752.684 572.859 752.915 584.211C753.768 626.128 755.136 663.703 721.248 694.825C707.853 707.29 691.208 715.713 673.232 719.125C657.957 722.111 636.331 721.282 620.289 721.282L548.454 721.262L463.948 721.375C445.793 721.508 427.81 721.715 409.68 721.491C360.041 720.877 319.012 687.586 310.199 638.303C307.104 620.994 307.764 602.396 307.765 584.627L307.836 520.736L308.138 427.634C308.167 409.297 307.914 390.56 308.467 372.443C310.183 328.779 338.494 288.547 381.626 277.476C402.903 272.015 420.983 273.23 442.508 273.278L508.617 273.309L606.253 273.285C623.704 273.276 641.33 272.961 658.771 273.505C692.623 274.561 724.52 294.558 740.554 324.345C756.491 354.413 753.112 390.355 752.987 423.294C752.924 440.141 753.39 458.342 752.445 475.045C752.44 498.49 753.306 527.089 752.384 549.995Z"/><path fill="#FEFEFE" transform="scale(0.484848 0.484879)" d="M433.978 425.425C441.917 410.962 452.815 398.333 465.961 388.362C497.162 364.834 536.444 360.783 571.698 377.342C590.856 386.341 603.882 399.16 616.26 415.762C644.428 463.9 638.617 507.112 613.195 554.229C607.528 564.705 601.351 574.898 594.686 584.77C586.319 597.364 540.014 663.163 530.612 668.18C529.182 668.943 526.931 668.737 525.368 668.725C516.108 661.379 510.624 652.479 503.313 643.383C484.444 619.907 468.946 594.968 452.16 570.129C448.916 562.784 444.367 556.044 440.806 548.882C429.128 525.353 419.748 500.231 420.765 473.535C421.449 455.578 426.484 441.373 433.978 425.425Z"/><path fill="#323232" transform="scale(0.484848 0.484879)" d="M527.122 436.91C548.976 436.726 566.877 454.223 567.189 476.074C567.501 497.926 550.108 515.927 528.258 516.368C506.226 516.812 488.04 499.243 487.725 477.21C487.41 455.177 505.086 437.096 527.122 436.91Z"/><path fill="#406168" transform="scale(0.484848 0.484879)" d="M641.522 405.872C645.875 398.758 653.044 399.268 660.729 399.338C669.762 399.421 677.052 397.68 682.594 406.15C688.154 410.084 702.864 424.595 707.317 430.134C710.6 431.751 711.309 432.752 713.016 435.997C719.208 441.042 727.451 449.569 733.286 455.447C739.069 461.275 747.16 468.964 752.445 475.045C752.44 498.49 753.306 527.089 752.384 549.995C747.122 559.058 739.739 557.461 730.317 556.599C725.744 552.86 724.818 551.506 721.825 546.366C722.197 586.9 729.465 586.822 687.604 586.27C678.755 578.389 670.795 569.127 662.08 560.942C656.08 575.366 649.748 589.561 642.037 603.173C633.421 618.383 578.453 701.291 565.892 706.684C564.497 707.283 563.331 706.954 562.003 706.331C559.834 705.315 557.815 703.562 556.082 701.914C551.079 697.157 546.662 691.68 541.93 686.65C536.489 680.866 530.041 675.121 525.368 668.725C526.931 668.737 529.182 668.943 530.612 668.18C540.014 663.163 586.319 597.364 594.686 584.77C601.351 574.898 607.528 564.705 613.195 554.229C638.617 507.112 644.428 463.9 616.26 415.762C620.13 416.985 638.369 436.449 641.421 440.036C641.275 428.648 641.309 417.259 641.522 405.872Z"/><path fill="#FEFEFE" transform="scale(0.484848 0.484879)" d="M641.522 405.872C645.875 398.758 653.044 399.268 660.729 399.338C669.762 399.421 677.052 397.68 682.594 406.15C682.969 433.32 683.144 460.492 683.117 487.665C683.146 502.596 683.245 517.372 682.959 532.551C683.158 550.133 670.031 546.271 657.596 546.566C649.975 546.747 641.277 545.697 641.276 536.275C641.275 504.479 640.812 471.771 641.421 440.036C641.275 428.648 641.309 417.259 641.522 405.872Z"/><path fill="#FEFEFE" transform="scale(0.484848 0.484879)" d="M689.711 431.701C695.501 428.894 701.101 429.694 707.317 430.134C710.6 431.751 711.309 432.752 713.016 435.997C713.571 452.408 713.796 468.829 713.69 485.249C713.684 491.792 715.096 513.5 709.837 515.103C690.868 520.884 687.225 515.487 688.208 499.909C689.396 481.102 685.326 447.877 689.711 431.701Z"/><path fill="#FEFEFE" transform="scale(0.484848 0.484879)" d="M372.888 527.487C373.667 521.202 373.165 500.893 373.225 493.639C373.288 467.534 373.204 441.604 373.393 415.48C373.502 400.339 377.631 400.472 391.534 400.249C397.278 400.157 403.176 400.482 408.945 400.698C411.563 402.754 411.915 403.181 413.925 405.775C414.97 427.885 414.156 456.536 414.144 479.064L414.115 515.221C414.109 520.339 415.076 539.889 411.935 543.501C407.607 548.48 394.547 547.346 388.337 547.33C371.304 547.304 372.613 540.953 372.888 527.487Z"/><path fill="#406168" transform="scale(0.484848 0.484879)" d="M413.925 405.775C420.656 411.827 427.68 418.891 433.978 425.425C426.484 441.373 421.449 455.578 420.765 473.535C419.748 500.231 429.128 525.353 440.806 548.882C444.367 556.044 448.916 562.784 452.16 570.129C452.387 593.304 435.164 588.18 418.095 587.213C410.961 581.505 397.138 566.839 390.268 559.758C377.189 546.277 359.984 531.18 347.939 517.412C349.619 517.807 351.328 518.072 353.049 518.203C361.066 518.768 367.1 518.984 367.431 509.509C367.741 500.663 367.688 491.941 367.696 483.093C367.803 467.306 367.738 451.518 367.5 435.732C369.895 436.268 371.083 438.55 372.369 440.58L372.768 441.213C372.869 460.344 372.871 479.474 372.775 498.605C372.758 507.282 372.351 519.219 372.888 527.487C372.613 540.953 371.304 547.304 388.337 547.33C394.547 547.346 407.607 548.48 411.935 543.501C415.076 539.889 414.109 520.339 414.115 515.221L414.144 479.064C414.156 456.536 414.97 427.885 413.925 405.775Z"/><path fill="#FEFEFE" transform="scale(0.484848 0.484879)" d="M343.694 512.814C342.786 488.855 343.459 462.943 343.797 438.892C343.927 429.586 355.372 430.103 361.839 430.872C364.693 431.212 366.037 433.498 367.5 435.732C367.738 451.518 367.803 467.306 367.696 483.093C367.688 491.941 367.741 500.663 367.431 509.509C367.1 518.984 361.066 518.768 353.049 518.203C351.328 518.072 349.619 517.807 347.939 517.412C345.749 515.73 345.346 515.066 343.694 512.814Z"/></svg>