<svg viewBox="0 0 502.691 502.691" xmlns="http://www.w3.org/2000/svg" aria-label="Mancuerna delante, pin detrás"><g><animateTransform attributeName="transform" type="translate" values="0 -6; 0 6; 0 -6" dur="1.6s" repeatCount="indefinite"/><path d="M295.72 119.5c0-24.495-19.88-44.375-44.375-44.375S206.97 95.005 206.97 119.5s19.88 44.375 44.375 44.375 44.375-19.88 44.375-44.375zm-44.375-97.625c53.96 0 97.625 43.665 97.625 97.625 0 79.875-97.625 168.625-97.625 168.625S153.72 199.375 153.72 119.5c0-53.96 43.665-97.625 97.625-97.625z" fill="#ECF0F1"/><path d="M277.97 261.5c35.5-35.5 71-93.658 71-142 0-53.916-43.71-97.625-97.625-97.625-53.916 0-97.625 43.71-97.625 97.625 0 79.875 97.625 168.625 97.625 168.625M295.72 119.5c0-24.513-19.862-44.375-44.375-44.375S206.97 94.987 206.97 119.5s19.862 44.375 44.375 44.375 44.375-19.862 44.375-44.375z" stroke="#43adff" stroke-width="17.75" stroke-linecap="round" stroke-linejoin="round" fill="none"/></g><path fill="#43adff" d="M64.375 434.71C51.519 434.71 41 424.19 41 411.335v-77.917c0-12.857 10.519-23.375 23.375-23.375S87.75 320.56 87.75 333.418v77.917c0 12.856-10.519 23.375-23.375 23.375z"/><path fill="#25638d" d="M103.334 458.085c-12.856 0-23.375-10.519-23.375-23.375V310.043c0-12.857 10.519-23.375 23.375-23.375s23.375 10.518 23.375 23.375V434.71c0 12.856-10.519 23.375-23.375 23.375z"/><path fill="#43adff" d="M438.377 310.043c12.857 0 23.375 10.518 23.375 23.375v77.917c0 12.856-10.518 23.375-23.375 23.375-12.856 0-23.374-10.519-23.374-23.375v-77.917c-.001-12.857 10.518-23.375 23.374-23.375z"/><path fill="#25638d" d="M399.41 286.667c12.856 0 23.375 10.519 23.375 23.375v124.667c0 12.856-10.519 23.375-23.375 23.375s-23.375-10.519-23.375-23.375V310.043c0-12.857 10.519-23.376 23.375-23.376z"/><path fill="#BDC3C7" d="M165.664 411.338h171.418v-77.917H165.664z"/><g fill="#43adff"><path d="M142.292 481.46c-12.856 0-23.375-10.518-23.375-23.375V286.668c0-12.857 10.519-23.375 23.375-23.375s23.375 10.518 23.375 23.375v171.417c0 12.856-10.519 23.375-23.375 23.375zM360.46 263.292c12.857 0 23.375 10.519 23.375 23.375v171.418c0 12.856-10.518 23.374-23.375 23.374-12.856 0-23.375-10.518-23.375-23.374V286.667c0-12.856 10.519-23.375 23.375-23.375z"/></g><g fill="#ECF0F1" transform="matrix(.837 0 0 .837 41 162)"><circle cx="214.109" cy="214.109" r="9.309"/><circle cx="251.345" cy="214.109" r="9.309"/><circle cx="288.582" cy="214.109" r="9.309"/><circle cx="232.727" cy="232.727" r="9.309"/><circle cx="269.964" cy="232.727" r="9.309"/><circle cx="214.109" cy="251.345" r="9.309"/><circle cx="251.345" cy="251.345" r="9.309"/><circle cx="288.582" cy="251.345" r="9.309"/><circle cx="214.109" cy="288.582" r="9.309"/><circle cx="251.345" cy="288.582" r="9.309"/><circle cx="288.582" cy="288.582" r="9.309"/><circle cx="232.727" cy="269.964" r="9.309"/><circle cx="269.964" cy="269.964" r="9.309"/></g></svg>