<svg width="512" height="512" viewBox="0 0 100 100"
     xmlns="http://www.w3.org/2000/svg">

  <!-- ========================================================= -->
  <!--               DEFINICIÓN DE FILTROS DE SOMBRA             -->
  <!-- ========================================================= -->
  <defs>
    <!-- SOMBRA DEL PIN (no se usa en el pin ahora, pero la dejo por si la querés luego) -->
    <filter id="shadow-pin" x="-60%" y="-60%" width="220%" height="220%">
      <feOffset in="SourceAlpha" dx="3" dy="3" result="off"/>
      <feFlood flood-color="#000000" flood-opacity="0.32" result="flood"/>
      <feComposite in="flood" in2="off" operator="in" result="shadow"/>
      <feMerge>
        <feMergeNode in="shadow"/>
        <feMergeNode in="SourceGraphic"/>
      </feMerge>
    </filter>

    <!-- SOMBRA MANCUERNA IZQUIERDA -->
    <filter id="shadow-left" x="-60%" y="-60%" width="220%" height="220%">
      <feOffset in="SourceAlpha" dx="3" dy="3" result="off"/>
      <feFlood flood-color="#000000" flood-opacity="0.32" result="flood"/>
      <feComposite in="flood" in2="off" operator="in" result="shadow"/>
      <feMerge>
        <feMergeNode in="shadow"/>
        <feMergeNode in="SourceGraphic"/>
      </feMerge>
    </filter>

    <!-- SOMBRA MANCUERNA DERECHA -->
    <filter id="shadow-right" x="-60%" y="-60%" width="220%" height="220%">
      <feOffset in="SourceAlpha" dx="3" dy="3" result="off"/>
      <feFlood flood-color="#000000" flood-opacity="0.32" result="flood"/>
      <feComposite in="flood" in2="off" operator="in" result="shadow"/>
      <feMerge>
        <feMergeNode in="shadow"/>
        <feMergeNode in="SourceGraphic"/>
      </feMerge>
    </filter>
  </defs>


  <!-- ========================================================= -->
  <!--           SOMBRA DEL PIN (DEBAJO DE LAS MANCUERNAS)       -->
  <!-- ========================================================= -->
  <g id="pin-shadow"
     transform="translate(31, 25.25) scale(1.5)"
     opacity="0.32">
    <path
      d="M15,0
         C7,0 0,7 0,15
         C0,28 15,45 15,45
         C15,45 30,28 30,15
         C30,7 23,0 15,0Z"
      fill="#000000"/>
    <circle cx="15" cy="15" r="7" fill="#000000"/>
  </g>

  <!-- ========================================================= -->
  <!--          MANCUERNA IZQUIERDA + SU SOMBRA                  -->
  <!-- ========================================================= -->
  <g id="manc-izq"
     filter="url(#shadow-left)"
     transform="translate(16.5, 30) scale(1.3)">
    <rect x="0" y="0" width="8" height="24" rx="2" fill="#ffffff"/>
    <rect x="-7" y="4" width="6" height="16" rx="2" fill="#ffffff"/>
  </g>

  <!-- ========================================================= -->
  <!--          MANCUERNA DERECHA + SU SOMBRA                    -->
  <!-- ========================================================= -->
  <g id="manc-der"
     filter="url(#shadow-right)"
     transform="translate(74, 30) scale(1.25)">
    <rect x="0" y="0" width="8" height="24" rx="2" fill="#ffffff"/>
    <rect x="9" y="4" width="6" height="16" rx="2" fill="#ffffff"/>
  </g>

  <!-- ========================================================= -->
  <!--                 PIN CENTRAL (SIN FILTRO)                  -->
  <!-- ========================================================= -->
  <g id="pin"
     transform="translate(28, 22.5) scale(1.5)">
    <path
      d="M15,0
         C7,0 0,7 0,15
         C0,28 15,45 15,45
         C15,45 30,28 30,15
         C30,7 23,0 15,0Z"
      fill="#ffffff"/>
    <circle cx="15" cy="15" r="7" fill="#2b2b2b"/>
  </g>

</svg>
